<svg width="555" height="261" viewBox="0 0 555 261" fill="none" xmlns="http://www.w3.org/2000/svg">
<path fill-rule="evenodd" clip-rule="evenodd" d="M109.5 97.5043C109.5 18.7043 161.833 -0.329056 188 0.00427752H399.5C471.1 0.00427752 486.333 62.3376 485 93.5043H521.5L555 111.504V144.504L521.5 162.004H485C485 231.604 438.667 256.671 415.5 260.504H188C121.2 260.504 107.833 197.171 109.5 165.504H79.5L0 130.504L79.5 97.5043H109.5ZM263 117.504H347C349 106.838 359.9 85.5043 387.5 85.5043C422 85.5043 429 115.504 429 122.504C429 129.504 422.5 162.004 389.5 162.004C363.1 162.004 350.167 144.671 347 136.004H263C258.667 144.671 244.7 162.004 223.5 162.004C197 162.004 181.5 146.504 181.5 120.004C181.5 93.5043 212 85.5043 220 85.5043C228 85.5043 256.033 91.5043 263 117.504Z" fill="#100F11"/>
</svg>
